#Comment line ignore any data following # character 
#Hierarchical Translation and Rotation (.htr) file 
[Header]	
#Header keywords are followed by a single value 
FileType HTR		#Single word string
DataType HTRS		#Translation followed by rotation and scale data
FileVersion 1		#integer
NumSegments 84		#integer
NumFrames 2		#integer
DataFrameRate 30		#integer, data frame rate in this file
EulerRotationOrder ZYX
CalibrationUnits mm
RotationUnits Degrees
GlobalAxisofGravity Y
BoneLengthAxis Y
ScaleFactor 1.00
[SegmentNames&Hierarchy]
#CHILD	PARENT
MASTER GLOBAL
root MASTER
chest root
L_mid_tent01 root
R_mid_tent01 root
spine01 root
Bip01_Neck chest
L_humerus chest
R_humerus chest
weapon_bone chest
Bip01_Head Bip01_Neck
eye_left_bone Bip01_Head
eye_right_bone Bip01_Head
L_forearm L_humerus
L_front_hand L_forearm
L_weapon_bone L_forearm
L_front_hand01_01 L_front_hand
L_front_hand02_01 L_front_hand
L_front_hand03_01 L_front_hand
L_front_hand01_02 L_front_hand01_01
L_front_hand02_02 L_front_hand02_01
L_front_hand03_02 L_front_hand03_01
R_forearm R_humerus
R_front_hand R_forearm
R_weapon_bone R_forearm
R_front_hand01_01 R_front_hand
R_front_hand02_01 R_front_hand
R_front_hand03_01 R_front_hand
R_front_hand01_02 R_front_hand01_01
R_front_hand02_02 R_front_hand02_01
R_front_hand03_02 R_front_hand03_01
null_rope01_connect L_mid_tent01
Rope1_Seg01 null_rope01_connect
Rope1_Seg02 Rope1_Seg01
Rope1_Seg03 Rope1_Seg02
Rope1_Seg04 Rope1_Seg03
Rope1_Seg05 Rope1_Seg04
Rope1_Seg06 Rope1_Seg05
Rope1_Seg07 Rope1_Seg06
Rope1_Seg09 Rope1_Seg07
L_mid_hand01 Rope1_Seg09
L_mid_hand02 Rope1_Seg09
L_mid_hand03 Rope1_Seg09
null_rope02_connect R_mid_tent01
Rope2_Seg01 null_rope02_connect
Rope2_Seg02 Rope2_Seg01
Rope2_Seg03 Rope2_Seg02
Rope2_Seg04 Rope2_Seg03
Rope2_Seg05 Rope2_Seg04
Rope2_Seg06 Rope2_Seg05
Rope2_Seg07 Rope2_Seg06
Rope2_Seg09 Rope2_Seg07
R_mid_hand01 Rope2_Seg09
R_mid_hand02 Rope2_Seg09
R_mid_hand03 Rope2_Seg09
spine02 spine01
spine03 spine02
pelvis spine03
null_rope03_connect pelvis
null_rope04_connect pelvis
Rope3_Seg01 null_rope03_connect
Rope3_Seg02 Rope3_Seg01
Rope3_Seg03 Rope3_Seg02
Rope3_Seg04 Rope3_Seg03
Rope3_Seg05 Rope3_Seg04
Rope3_Seg06 Rope3_Seg05
Rope3_Seg07 Rope3_Seg06
Rope3_Seg08 Rope3_Seg07
Rope3_Seg09 Rope3_Seg08
R_rear_hand01 Rope3_Seg09
R_rear_hand02 Rope3_Seg09
R_rear_hand03 Rope3_Seg09
Rope4_Seg01 null_rope04_connect
Rope4_Seg02 Rope4_Seg01
Rope4_Seg03 Rope4_Seg02
Rope4_Seg04 Rope4_Seg03
Rope4_Seg05 Rope4_Seg04
Rope4_Seg06 Rope4_Seg05
Rope4_Seg07 Rope4_Seg06
Rope4_Seg08 Rope4_Seg07
Rope4_Seg09 Rope4_Seg08
L_rear_hand01 Rope4_Seg09
L_rear_hand02 Rope4_Seg09
L_rear_hand03 Rope4_Seg09
[BasePosition]
#SegmentName Tx, Ty, Tz, Rx, Ry, Rz, BoneLength
MASTER 0.000000 0.000000 0.000000 -90.000000 0.000000 0.000000 10.000000 
root 0.000000 0.000000 0.000000 0.000000 0.000000 0.000000 10.000000 
chest 0.000000 0.000000 0.000000 0.000000 0.000000 0.000000 10.000000 
L_mid_tent01 0.000000 0.000000 0.000000 0.000000 0.000000 0.000000 10.000000 
R_mid_tent01 0.000000 0.000000 0.000000 0.000000 0.000000 0.000000 10.000000 
spine01 0.000000 0.000000 0.000000 0.000000 0.000000 0.000000 10.000000 
Bip01_Neck 0.000000 0.000000 0.000000 0.000000 0.000000 0.000000 10.000000 
L_humerus 0.000000 0.000000 0.000000 0.000000 0.000000 0.000000 10.000000 
R_humerus 0.000000 0.000000 0.000000 0.000000 0.000000 0.000000 10.000000 
weapon_bone 0.000000 0.000000 0.000000 0.000000 0.000000 0.000000 10.000000 
Bip01_Head 0.000000 0.000000 0.000000 0.000000 0.000000 0.000000 10.000000 
eye_left_bone 0.000000 0.000000 0.000000 0.000000 0.000000 0.000000 10.000000 
eye_right_bone 0.000000 0.000000 0.000000 0.000000 0.000000 0.000000 10.000000 
L_forearm 0.000000 0.000000 0.000000 0.000000 0.000000 0.000000 10.000000 
L_front_hand 0.000000 0.000000 0.000000 0.000000 0.000000 0.000000 10.000000 
L_weapon_bone 0.000000 0.000000 0.000000 0.000000 0.000000 0.000000 10.000000 
L_front_hand01_01 0.000000 0.000000 0.000000 0.000000 0.000000 0.000000 10.000000 
L_front_hand02_01 0.000000 0.000000 0.000000 0.000000 0.000000 0.000000 10.000000 
L_front_hand03_01 0.000000 0.000000 0.000000 0.000000 0.000000 0.000000 10.000000 
L_front_hand01_02 0.000000 0.000000 0.000000 0.000000 0.000000 0.000000 10.000000 
L_front_hand02_02 0.000000 0.000000 0.000000 0.000000 0.000000 0.000000 10.000000 
L_front_hand03_02 0.000000 0.000000 0.000000 0.000000 0.000000 0.000000 10.000000 
R_forearm 0.000000 0.000000 0.000000 0.000000 0.000000 0.000000 10.000000 
R_front_hand 0.000000 0.000000 0.000000 0.000000 0.000000 0.000000 10.000000 
R_weapon_bone 0.000000 0.000000 0.000000 0.000000 0.000000 0.000000 10.000000 
R_front_hand01_01 0.000000 0.000000 0.000000 0.000000 0.000000 0.000000 10.000000 
R_front_hand02_01 0.000000 0.000000 0.000000 0.000000 0.000000 0.000000 10.000000 
R_front_hand03_01 0.000000 0.000000 0.000000 0.000000 0.000000 0.000000 10.000000 
R_front_hand01_02 0.000000 0.000000 0.000000 0.000000 0.000000 0.000000 10.000000 
R_front_hand02_02 0.000000 0.000000 0.000000 0.000000 0.000000 0.000000 10.000000 
R_front_hand03_02 0.000000 0.000000 0.000000 0.000000 0.000000 0.000000 10.000000 
null_rope01_connect 0.000000 0.000000 0.000000 0.000000 0.000000 0.000000 10.000000 
Rope1_Seg01 0.000000 0.000000 0.000000 0.000000 0.000000 0.000000 10.000000 
Rope1_Seg02 0.000000 0.000000 0.000000 0.000000 0.000000 0.000000 10.000000 
Rope1_Seg03 0.000000 0.000000 0.000000 0.000000 0.000000 0.000000 10.000000 
Rope1_Seg04 0.000000 0.000000 0.000000 0.000000 0.000000 0.000000 10.000000 
Rope1_Seg05 0.000000 0.000000 0.000000 0.000000 0.000000 0.000000 10.000000 
Rope1_Seg06 0.000000 0.000000 0.000000 0.000000 0.000000 0.000000 10.000000 
Rope1_Seg07 0.000000 0.000000 0.000000 0.000000 0.000000 0.000000 10.000000 
Rope1_Seg09 0.000000 0.000000 0.000000 0.000000 0.000000 0.000000 10.000000 
L_mid_hand01 0.000000 0.000000 0.000000 0.000000 0.000000 0.000000 10.000000 
L_mid_hand02 0.000000 0.000000 0.000000 0.000000 0.000000 0.000000 10.000000 
L_mid_hand03 0.000000 0.000000 0.000000 0.000000 0.000000 0.000000 10.000000 
null_rope02_connect 0.000000 0.000000 0.000000 0.000000 0.000000 0.000000 10.000000 
Rope2_Seg01 0.000000 0.000000 0.000000 0.000000 0.000000 0.000000 10.000000 
Rope2_Seg02 0.000000 0.000000 0.000000 0.000000 0.000000 0.000000 10.000000 
Rope2_Seg03 0.000000 0.000000 0.000000 0.000000 0.000000 0.000000 10.000000 
Rope2_Seg04 0.000000 0.000000 0.000000 0.000000 0.000000 0.000000 10.000000 
Rope2_Seg05 0.000000 0.000000 0.000000 0.000000 0.000000 0.000000 10.000000 
Rope2_Seg06 0.000000 0.000000 0.000000 0.000000 0.000000 0.000000 10.000000 
Rope2_Seg07 0.000000 0.000000 0.000000 0.000000 0.000000 0.000000 10.000000 
Rope2_Seg09 0.000000 0.000000 0.000000 0.000000 0.000000 0.000000 10.000000 
R_mid_hand01 0.000000 0.000000 0.000000 0.000000 0.000000 0.000000 10.000000 
R_mid_hand02 0.000000 0.000000 0.000000 0.000000 0.000000 0.000000 10.000000 
R_mid_hand03 0.000000 0.000000 0.000000 0.000000 0.000000 0.000000 10.000000 
spine02 0.000000 0.000000 0.000000 0.000000 0.000000 0.000000 10.000000 
spine03 0.000000 0.000000 0.000000 0.000000 0.000000 0.000000 10.000000 
pelvis 0.000000 0.000000 0.000000 0.000000 0.000000 0.000000 10.000000 
null_rope03_connect 0.000000 0.000000 0.000000 0.000000 0.000000 0.000000 10.000000 
null_rope04_connect 0.000000 0.000000 0.000000 0.000000 0.000000 0.000000 10.000000 
Rope3_Seg01 0.000000 0.000000 0.000000 0.000000 0.000000 0.000000 10.000000 
Rope3_Seg02 0.000000 0.000000 0.000000 0.000000 0.000000 0.000000 10.000000 
Rope3_Seg03 0.000000 0.000000 0.000000 0.000000 0.000000 0.000000 10.000000 
Rope3_Seg04 0.000000 0.000000 0.000000 0.000000 0.000000 0.000000 10.000000 
Rope3_Seg05 0.000000 0.000000 0.000000 0.000000 0.000000 0.000000 10.000000 
Rope3_Seg06 0.000000 0.000000 0.000000 0.000000 0.000000 0.000000 10.000000 
Rope3_Seg07 0.000000 0.000000 0.000000 0.000000 0.000000 0.000000 10.000000 
Rope3_Seg08 0.000000 0.000000 0.000000 0.000000 0.000000 0.000000 10.000000 
Rope3_Seg09 0.000000 0.000000 0.000000 0.000000 0.000000 0.000000 10.000000 
R_rear_hand01 0.000000 0.000000 0.000000 0.000000 0.000000 0.000000 10.000000 
R_rear_hand02 0.000000 0.000000 0.000000 0.000000 0.000000 0.000000 10.000000 
R_rear_hand03 0.000000 0.000000 0.000000 0.000000 0.000000 0.000000 10.000000 
Rope4_Seg01 0.000000 0.000000 0.000000 0.000000 0.000000 0.000000 10.000000 
Rope4_Seg02 0.000000 0.000000 0.000000 0.000000 0.000000 0.000000 10.000000 
Rope4_Seg03 0.000000 0.000000 0.000000 0.000000 0.000000 0.000000 10.000000 
Rope4_Seg04 0.000000 0.000000 0.000000 0.000000 0.000000 0.000000 10.000000 
Rope4_Seg05 0.000000 0.000000 0.000000 0.000000 0.000000 0.000000 10.000000 
Rope4_Seg06 0.000000 0.000000 0.000000 0.000000 0.000000 0.000000 10.000000 
Rope4_Seg07 0.000000 0.000000 0.000000 0.000000 0.000000 0.000000 10.000000 
Rope4_Seg08 0.000000 0.000000 0.000000 0.000000 0.000000 0.000000 10.000000 
Rope4_Seg09 0.000000 0.000000 0.000000 0.000000 0.000000 0.000000 10.000000 
L_rear_hand01 0.000000 0.000000 0.000000 0.000000 0.000000 0.000000 10.000000 
L_rear_hand02 0.000000 0.000000 0.000000 0.000000 0.000000 0.000000 10.000000 
L_rear_hand03 0.000000 0.000000 0.000000 0.000000 0.000000 0.000000 10.000000 
#Beginning of Data. Separated by tabs
#Fr	Tx	Ty	Tz	Rx	Ry	Rz	SF
[MASTER]
1 0.000000 0.000000 0.000000 0.000000 -0.002347 -90.000000 0.000000
2 57.177048 -230.963470 54.995827 0.000000 -0.002347 -90.000000 244.208679
[root]
1 9.364140 16.502300 1448.320068 -91.730255 -11.579371 -179.473007 1448.444336
2 -37.433426 14.407401 1477.884521 -92.083534 -16.894896 179.909897 1478.428711
[chest]
1 -84.512650 -34.090519 0.000000 -2.170494 -0.006436 168.239609 91.129311
2 -84.512650 -34.090519 0.000000 -4.514014 -2.074954 169.908691 91.129311
[L_mid_tent01]
1 27.299124 22.179148 -249.918701 -20.661392 12.026043 12.983022 252.381683
2 27.299128 22.179152 -249.918701 -12.717322 11.910913 32.844513 252.381683
[R_mid_tent01]
1 23.228794 24.509907 226.238495 -165.192200 -17.956036 24.056787 228.744751
2 23.228794 24.509907 226.238495 179.416687 -20.808069 52.804115 228.744751
[spine01]
1 -0.361383 -0.195265 0.000000 0.001947 0.001312 22.051847 0.410763
2 -0.361383 -0.195265 0.000000 0.001948 0.001310 22.157688 0.410763
[Bip01_Neck]
1 165.484543 71.581718 0.000119 176.643677 -1.657967 43.431911 180.302734
2 165.484543 71.581718 0.000119 176.643677 -1.657967 43.431915 180.302734
[L_humerus]
1 -13.983130 -135.272980 -120.471481 -5.480129 68.873367 84.573456 181.680161
2 -13.983130 -135.272980 -120.471481 -5.022486 68.452515 84.984619 181.680161
[R_humerus]
1 -13.983309 -135.273102 125.287651 27.897165 -69.888802 67.752319 184.909012
2 -13.983309 -135.273102 125.287651 27.878599 -70.487991 67.745277 184.909012
[weapon_bone]
1 235.964890 -300.705902 0.000000 0.000000 -89.951546 -128.212341 382.234833
2 235.964890 -300.705902 0.000000 0.000000 -89.951546 -128.212341 382.234833
[Bip01_Head]
1 213.444183 185.715408 11.776963 4.962490 2.797846 -43.898743 283.173676
2 213.440414 185.725998 11.640241 5.894607 3.430103 -43.889526 283.172119
[eye_left_bone]
1 -24.626970 125.451866 -64.772606 0.000000 -90.000000 -99.840431 143.318359
2 -24.626970 125.451866 -64.772606 0.000000 -90.000000 -99.840431 143.318359
[eye_right_bone]
1 -24.626970 125.451866 64.327362 0.000000 -89.965736 80.156380 143.117676
2 -24.626970 125.451866 64.327362 0.000000 -89.965736 80.156380 143.117676
[L_forearm]
1 322.776093 0.000000 -0.000119 0.000396 -0.002314 -109.419975 322.776093
2 322.776093 0.000000 -0.000119 0.000400 -0.002313 -109.646866 322.776093
[L_front_hand]
1 241.149185 -0.042021 -3.300071 -178.667953 -1.835447 -27.422350 241.171753
2 241.149185 -0.042021 -3.300071 -178.667953 -1.835447 -27.422350 241.171753
[L_weapon_bone]
1 156.183838 0.000000 0.000000 0.000014 0.000007 0.000001 156.183838
2 156.183838 0.000000 0.000000 0.000014 0.000007 0.000001 156.183838
[L_front_hand01_01]
1 86.095154 20.947098 -0.655860 -0.366594 -0.477154 75.385574 88.609184
2 86.095154 20.947098 -0.655860 -0.366594 -0.477154 75.385574 88.609184
[L_front_hand02_01]
1 86.935165 -11.437475 24.513514 154.399796 -59.883835 -61.369587 91.046425
2 86.935165 -11.437475 24.513514 154.399796 -59.883835 -61.369587 91.046425
[L_front_hand03_01]
1 86.637497 -14.123976 -20.424902 -153.913849 58.118122 -62.702866 90.126129
2 86.637497 -14.123976 -20.424902 -153.913849 58.118122 -62.702866 90.126129
[L_front_hand01_02]
1 71.020905 -0.000179 0.000030 0.000320 -0.002325 -105.680054 71.020905
2 71.020905 -0.000179 0.000030 0.000319 -0.002325 -105.642807 71.020905
[L_front_hand02_02]
1 71.020927 -0.000119 0.000060 0.000320 -0.002325 -105.680054 71.020927
2 71.020927 -0.000119 0.000060 0.000319 -0.002325 -105.642807 71.020927
[L_front_hand03_02]
1 71.020905 -0.000060 0.000060 0.000320 -0.002325 -105.680054 71.020905
2 71.020905 -0.000060 0.000060 0.000319 -0.002325 -105.642807 71.020905
[R_forearm]
1 322.776428 -0.000060 0.000030 0.202103 0.065158 -108.062805 322.776428
2 322.776428 -0.000060 0.000030 0.201971 0.065567 -108.294685 322.776428
[R_front_hand]
1 238.847015 -0.006795 2.210259 -2.635298 -10.645461 -26.312506 238.857239
2 238.847015 -0.006795 2.210259 -2.635298 -10.645461 -26.312506 238.857239
[R_weapon_bone]
1 155.664093 0.002503 -0.000030 0.003487 0.001180 -90.988930 155.664078
2 155.664093 0.002503 -0.000030 0.003487 0.001180 -90.988930 155.664078
[R_front_hand01_01]
1 87.624611 14.231146 22.918642 -154.633499 -59.950619 61.746044 91.683487
2 87.624611 14.231146 22.918642 -154.633499 -59.950619 61.746044 91.683487
[R_front_hand02_01]
1 89.356956 14.367283 -19.491137 154.602661 58.302849 63.744389 92.579636
2 89.356956 14.367283 -19.491137 154.602661 58.302849 63.744389 92.579636
[R_front_hand03_01]
1 87.286232 -22.307278 -0.143439 0.162155 -0.423168 -75.767921 90.091743
2 87.286232 -22.307278 -0.143439 0.162155 -0.423168 -75.767921 90.091743
[R_front_hand01_02]
1 71.020905 0.000060 0.000119 0.002323 -0.000334 106.381714 71.020905
2 71.020905 0.000060 0.000119 0.002323 -0.000334 106.381714 71.020905
[R_front_hand02_02]
1 71.020844 -0.000030 -0.000119 0.002323 -0.000334 106.381714 71.020836
2 71.020844 -0.000030 -0.000119 0.002323 -0.000334 106.381714 71.020836
[R_front_hand03_02]
1 71.020905 0.000000 0.000030 0.002323 -0.000334 106.381714 71.020905
2 71.020905 0.000000 0.000030 0.002323 -0.000334 106.381714 71.020905
[null_rope01_connect]
1 328.732483 0.000000 -0.000238 154.475479 64.793022 61.079132 328.732483
2 328.732483 0.000000 -0.000238 154.273239 70.551933 47.030392 328.732483
[Rope1_Seg01]
1 0.000000 0.000000 0.000000 69.015358 0.238825 50.085987 0.000000
2 0.000000 0.000000 0.000000 75.915443 2.747957 47.592052 0.000000
[Rope1_Seg02]
1 139.999863 -0.000179 0.000000 -5.846246 3.728422 -0.347339 139.999863
2 139.999863 -0.000179 0.000000 11.784695 -1.221632 -5.700449 139.999863
[Rope1_Seg03]
1 139.999924 0.000060 -0.000060 -6.420890 3.801188 -0.627951 139.999924
2 139.999924 0.000060 -0.000060 7.734797 -4.261980 -0.445291 139.999924
[Rope1_Seg04]
1 139.999924 -0.000060 -0.000119 4.156734 2.116222 -4.223904 139.999924
2 139.999924 -0.000060 -0.000119 120.877571 -1.430556 -89.818771 139.999924
[Rope1_Seg05]
1 139.999832 0.000119 -0.000060 -48.844036 14.604858 11.485073 139.999832
2 139.999832 0.000119 -0.000060 -15.373238 -43.157703 32.409424 139.999832
[Rope1_Seg06]
1 139.999954 0.000119 -0.000060 -13.097925 -0.986917 13.993683 139.999954
2 139.999954 0.000119 -0.000060 -0.801802 -2.960163 1.605608 139.999954
[Rope1_Seg07]
1 139.999985 0.000060 0.000000 -3.131314 -1.190754 5.112318 139.999985
2 139.999985 0.000060 0.000000 -0.198510 -0.714829 0.373833 139.999985
[Rope1_Seg09]
1 121.602913 0.000119 -0.000089 -89.793175 -1.359789 0.847147 121.602913
2 121.602913 0.000119 -0.000089 -89.793175 -1.359789 0.847147 121.602913
[L_mid_hand01]
1 103.859421 1.038730 8.195221 130.544373 -67.584534 -38.866943 104.187431
2 103.859421 1.038730 8.195221 129.242477 -66.931091 -37.458961 104.187431
[L_mid_hand02]
1 105.572853 -4.139662 -10.864139 -168.923172 43.409309 -73.498886 106.211075
2 105.572853 -4.139662 -10.864139 -168.136536 43.236561 -72.353096 106.211075
[L_mid_hand03]
1 104.641464 17.579376 -3.913581 -6.012627 17.808174 74.893669 106.179977
2 104.641464 17.579376 -3.913581 -6.285014 17.719219 74.000862 106.179977
[null_rope02_connect]
1 328.732849 0.000179 -0.000119 140.205658 -68.102119 144.846863 328.732849
2 328.732849 0.000179 -0.000119 120.668282 -70.838585 -174.636841 328.732849
[Rope2_Seg01]
1 -0.000076 -0.000191 0.000000 56.591034 6.015893 128.847275 0.000205
2 -0.000076 -0.000187 0.000000 -158.072571 34.327675 136.780258 0.000202
[Rope2_Seg02]
1 139.999741 -0.000060 -0.000119 28.306774 -11.742421 -8.229953 139.999756
2 139.999741 -0.000060 -0.000119 -25.813261 0.126826 10.811372 139.999756
[Rope2_Seg03]
1 140.000107 0.000030 0.000000 8.789976 -7.564706 -2.330449 140.000107
2 140.000107 0.000030 0.000000 -18.527594 -21.881454 26.798574 140.000107
[Rope2_Seg04]
1 139.999802 0.000000 -0.000060 2.159059 -11.155950 2.748317 139.999802
2 139.999802 0.000000 -0.000060 -10.709148 -41.933071 26.603521 139.999802
[Rope2_Seg05]
1 139.999985 -0.000060 0.000119 -0.194166 -7.994879 3.510992 139.999985
2 139.999985 -0.000060 0.000119 -0.262236 -9.636786 5.013433 139.999985
[Rope2_Seg06]
1 139.999893 -0.000030 -0.000119 0.095661 -3.714615 1.374218 139.999893
2 139.999893 -0.000030 -0.000119 -0.006352 -2.248831 1.164272 139.999893
[Rope2_Seg07]
1 139.999893 0.000060 -0.000060 0.043541 -2.338205 0.856562 139.999893
2 139.999893 0.000060 -0.000060 -0.052742 0.001655 0.001662 139.999893
[Rope2_Seg09]
1 121.338966 0.000089 -0.000060 33.793236 -1.359788 -0.847141 121.338966
2 121.338966 0.000089 -0.000060 33.793236 -1.359788 -0.847141 121.338966
[R_mid_hand01]
1 104.680779 11.144459 -10.335981 -16.212063 45.237247 70.462852 105.778534
2 104.680779 11.144459 -10.335981 -16.562792 45.133286 69.965408 105.778534
[R_mid_hand02]
1 104.070427 2.443552 8.231699 49.067368 -67.749771 39.286453 104.424065
2 104.070427 2.443552 8.231699 49.649654 -67.470848 38.658398 104.424065
[R_mid_hand03]
1 106.028137 -11.221827 -5.996406 -177.101105 15.551026 -76.585571 106.788818
2 106.028137 -11.221827 -5.996406 -176.996689 15.531745 -76.202309 106.788818
[spine02]
1 129.756927 0.001550 0.000119 0.360061 -4.044797 -12.915058 129.756927
2 129.756927 0.001550 0.000119 0.382053 -4.042557 -13.259526 129.756927
[spine03]
1 78.614075 0.081744 -4.899007 1.896495 3.831288 16.473045 78.766617
2 78.614075 0.081744 -4.899006 1.910347 3.824372 16.678465 78.766617
[pelvis]
1 169.435242 0.051022 0.000000 -0.060465 -0.180225 14.087930 169.435257
2 169.435242 0.051022 0.000000 0.031794 -0.201531 13.968191 169.435257
[null_rope03_connect]
1 -1.257226 -2.466202 137.391083 -156.465958 89.384834 85.432991 137.418976
2 -1.257226 -2.466202 137.391083 144.812485 89.072113 32.159966 137.418976
[null_rope04_connect]
1 -1.259640 -2.480268 -137.844437 -156.465958 89.384834 85.432991 137.872513
2 -1.259640 -2.480268 -137.844437 144.812485 89.072113 32.159966 137.872513
[Rope3_Seg01]
1 0.000000 0.000000 0.000000 -140.906555 28.681061 83.201622 0.000000
2 0.000000 0.000000 0.000000 -137.756866 21.109196 82.733467 0.000000
[Rope3_Seg02]
1 139.999924 -0.000119 0.000060 0.674123 -1.057378 -4.219490 139.999924
2 139.999924 -0.000119 0.000060 1.288175 -0.561678 -6.735166 139.999924
[Rope3_Seg03]
1 139.999924 -0.000119 0.000119 0.640448 -1.341276 -5.082200 139.999924
2 139.999924 -0.000119 0.000119 1.423002 -0.572713 -11.763262 139.999924
[Rope3_Seg04]
1 139.999924 0.000119 0.000000 0.739769 -2.592923 -9.345637 139.999924
2 139.999924 0.000119 0.000000 -0.146938 -0.758918 -20.598591 139.999924
[Rope3_Seg05]
1 139.999924 -0.000238 0.000060 0.117985 0.332117 0.887289 139.999924
2 139.999924 -0.000238 0.000060 -0.188196 -6.034035 21.805302 139.999924
[Rope3_Seg06]
1 139.999893 -0.000119 -0.000060 0.144595 2.262319 7.479263 139.999893
2 139.999893 -0.000119 -0.000060 -2.062148 -3.336189 15.238857 139.999893
[Rope3_Seg07]
1 139.999771 0.000060 -0.000119 0.285476 0.875222 2.828207 139.999771
2 139.999771 0.000060 -0.000119 -1.151317 -1.844167 6.077627 139.999771
[Rope3_Seg08]
1 139.999985 -0.000060 0.000000 0.375531 0.530303 1.694914 139.999985
2 139.999985 -0.000060 0.000000 -0.555447 -1.100123 3.395474 139.999985
[Rope3_Seg09]
1 90.185997 -0.000179 -0.000060 89.793228 -1.359877 -0.847183 90.185997
2 90.185997 -0.000179 -0.000060 89.793228 -1.359877 -0.847183 90.185997
[R_rear_hand01]
1 103.366196 -6.073594 -10.757982 -177.714203 24.565960 -73.910950 104.101845
2 103.366196 -6.073594 -10.757982 -177.501556 24.545221 -73.407959 104.101845
[R_rear_hand02]
1 100.509819 12.039542 -7.992327 -12.874829 36.868488 72.167213 101.543350
2 100.509819 12.039542 -7.992327 -13.210595 36.766563 71.607780 101.543350
[R_rear_hand03]
1 101.539970 5.215704 5.435467 71.484581 -71.816628 21.513813 101.819031
2 101.539970 5.215704 5.435467 71.918968 -71.383453 21.055584 101.819031
[Rope4_Seg01]
1 0.000010 0.000038 -0.000153 42.320213 20.063818 57.923576 0.000158
2 0.000010 0.000037 -0.000150 43.779640 15.585765 59.070072 0.000154
[Rope4_Seg02]
1 139.999985 0.000060 0.000119 -0.009043 4.231568 1.317809 139.999985
2 139.999985 0.000060 0.000119 -0.060929 3.771588 0.954700 139.999985
[Rope4_Seg03]
1 139.999924 0.000000 -0.000238 0.059014 4.775267 1.494111 139.999924
2 139.999924 0.000000 -0.000238 0.004622 4.369917 1.115443 139.999924
[Rope4_Seg04]
1 139.999985 0.000000 0.000119 0.479750 9.436693 5.487227 139.999985
2 139.999985 0.000000 0.000119 0.544698 9.691773 5.872522 139.999985
[Rope4_Seg05]
1 139.999802 -0.000060 -0.000119 0.401759 4.517470 0.230339 139.999802
2 139.999802 -0.000060 -0.000119 0.394235 3.877302 -0.682759 139.999802
[Rope4_Seg06]
1 139.999924 0.000000 0.000060 1.364547 -7.762990 -9.436074 139.999924
2 139.999924 0.000000 0.000060 1.665553 -10.535651 -13.429094 139.999924
[Rope4_Seg07]
1 139.999802 0.000000 0.000000 0.250988 -4.582498 -5.237027 139.999802
2 139.999802 0.000000 0.000000 -0.196663 -6.085833 -7.556131 139.999802
[Rope4_Seg08]
1 139.999924 0.000000 0.000119 -1.561139 -1.596138 -2.168082 139.999924
2 139.999924 0.000000 0.000119 -1.979867 -2.418296 -3.430250 139.999924
[Rope4_Seg09]
1 90.185791 0.000060 0.000060 -135.617828 2.228885 0.850567 90.185791
2 90.185791 0.000060 0.000060 -135.617828 2.228885 0.850567 90.185791
[L_rear_hand01]
1 101.696655 -8.392275 -7.654577 -12.874829 -36.868488 107.832764 102.329041
2 101.696655 -8.392275 -7.654577 -14.225129 -36.428967 110.098549 102.329041
[L_rear_hand02]
1 102.726799 -1.568258 5.773216 71.484581 71.816628 158.486160 102.900848
2 102.726799 -1.568258 5.773216 73.119141 70.038223 160.218079 102.900848
[L_rear_hand03]
1 104.552910 9.721220 -10.420293 -177.714203 -24.565960 -106.089035 105.519653
2 104.552910 9.721220 -10.420293 -176.859985 -24.478331 -108.136047 105.519653
